<svg version="1.2" xmlns="http://www.w3.org/2000/svg" viewBox="0 0 1563 1056" width="1563" height="1056">
	<title>logo_white-blue-svg</title>
	<style>
		.s0 { fill: #464547 } 
		.s1 { fill: #00abcd } 
	</style>
	<g id="Layer">
		<g id="Layer">
			<path id="Layer" fill-rule="evenodd" class="s0" d="m676.4 587.3l0.7 240.9c0 61.2 29.6 91.5 88.2 91.5h25.6c58.6 0 88.2-30.3 88.2-91.5v-118.5h134.9v112.6c0 154.7-75 233.7-223.7 233.7h-29.6c-148.8 0-223.8-78.4-223.8-215.3v-589.1c0-173.1 75-251.5 223.8-251.5h29.6c148.7 0 223.7 78.4 223.7 233l-0.6 353.5h-337zm198.1-140.2v-219.2c0-61.2-28.9-92.1-88.2-92.1h-22.3c-58.6 0-88.2 30.9-88.2 92.1v219.2z"/>
		</g>
		<path id="Layer" class="s1" d="m358.6 106.8v190.2l-234.3 233 234.3 228.4v194.2l-358-350.8v-139.6z"/>
		<path id="Layer" class="s1" d="m1204.9 106.8l358 355.4v139.6l-358 350.8v-193.5l234.3-229.1-234.3-233z"/>
	</g>
</svg>