<svg version="1.2" xmlns="http://www.w3.org/2000/svg" viewBox="0 0 1565 576" width="1565" height="576">
	<title>logo_white-blue-svg</title>
	<style>
		.s0 { fill: #464547 } 
		.s1 { fill: #00abcd } 
	</style>
	<g id="Layer">
		<g id="Layer">
			<path id="Layer" fill-rule="evenodd" class="s0" d="m295.6 257.1l0.3 105.3c0 26.8 12.9 40 38.5 40h11.2c25.6 0 38.6-13.2 38.6-40v-51.8h58.9v49.2c0 67.7-32.8 102.2-97.8 102.2h-12.9c-65 0-97.8-34.3-97.8-94.1v-257.5c0-75.7 32.8-109.9 97.8-109.9h12.9c65 0 97.8 34.2 97.8 101.8l-0.3 154.5h-147.2zm86.5-61.2v-95.8c0-26.8-12.6-40.3-38.5-40.3h-9.8c-25.6 0-38.5 13.5-38.5 40.3v95.8z"/>
			<path id="Layer" fill-rule="evenodd" class="s0" d="m482.5 5.7h61v29.3c14.4-15.8 39.1-34.2 74.5-34.2 52 0 77.6 35.9 77.6 89.5v282.5c0 53.5-25.6 89.5-77.6 89.5-35.4 0-60.1-17.6-74.5-32.5v145.5h-61zm61 372.6c16.7 15 35.9 23.3 56.1 23.3 22.4 0 35.3-10.9 35.3-36.8v-267.6c0-25.9-12.9-36.8-35.3-36.8-20.2 0-39.4 8.4-56.1 23.3zm188.9-78.5c0-56.1 17.6-78.6 64.2-95.3l81.6-29.3v-75.1c0-26.8-12.9-40.9-38.5-40.9h-9.8c-25.6 0-38.5 14.1-38.5 40.9v63.9h-59.3v-61.3c0-67.6 32.8-101.9 97.8-101.9h11.5c65 0 97.8 34.3 97.8 101.9v354.4h-61v-28.4c-16.7 16.6-39.4 33.3-74.5 33.3-48.8 0-71.3-29.3-71.3-79.4zm145.8 81.2v-148.8l-55.2 21.9c-22.4 9.2-29.6 21-29.6 46.9v68.5c0 21.8 10.3 32.5 29.6 32.5 18.4 0 35.4-6.7 55.2-21zm307.2 76.2h-61v-363.7c0-22.4-10.4-32.5-28.8-32.5-16.6 0-34.5 6.6-56 22.5v373.7h-61v-451.4h61v29.3c17.8-17.5 40.8-34.5 74.4-34.5 31.4 0 52.1 13.5 63.3 36.8 21.9-19.2 47.5-36.8 82.5-36.8 47.2 0 71.4 30.2 71.4 79.4v376.9h-61v-363.4c0-22.4-10.4-32.5-28.8-32.5-16.6 0-34.5 6.6-56 22.5z"/>
		</g>
		<path id="Layer" class="s1" d="m156.7 47.1v83.2l-102.4 101.8 102.4 99.8v84.9l-156.5-153.3v-61z"/>
		<path id="Layer" class="s1" d="m1408.5 47.1l156.5 155.4v61l-156.5 153.3v-84.6l102.4-100.1-102.4-101.8z"/>
	</g>
</svg>